<svg width="375" height="92" viewBox="0 0 375 92" fill="none" xmlns="http://www.w3.org/2000/svg">
<path d="M39.7548 61.364V74H36.6768V66.098L33.9408 74H31.2768L28.5228 66.08V74H25.4448V61.364H29.2068L32.6448 70.166L36.0108 61.364H39.7548ZM44.2024 63.956L46.6144 70.112L48.8644 63.956H52.2664L46.0024 78.788H42.6184L44.9764 73.622L40.7644 63.956H44.2024ZM59.9701 71.642H64.0741V74H56.8921V61.274H59.9701V71.642ZM70.1858 63.83C71.1818 63.83 72.0698 64.04 72.8498 64.46C73.6418 64.868 74.2598 65.462 74.7038 66.242C75.1598 67.022 75.3878 67.934 75.3878 68.978C75.3878 70.022 75.1598 70.934 74.7038 71.714C74.2598 72.494 73.6418 73.094 72.8498 73.514C72.0698 73.922 71.1818 74.126 70.1858 74.126C69.1898 74.126 68.2958 73.922 67.5038 73.514C66.7118 73.094 66.0878 72.494 65.6318 71.714C65.1878 70.934 64.9658 70.022 64.9658 68.978C64.9658 67.934 65.1878 67.022 65.6318 66.242C66.0878 65.462 66.7118 64.868 67.5038 64.46C68.2958 64.04 69.1898 63.83 70.1858 63.83ZM70.1858 66.494C69.5978 66.494 69.0998 66.71 68.6918 67.142C68.2958 67.562 68.0978 68.174 68.0978 68.978C68.0978 69.782 68.2958 70.394 68.6918 70.814C69.0998 71.234 69.5978 71.444 70.1858 71.444C70.7738 71.444 71.2658 71.234 71.6618 70.814C72.0578 70.394 72.2558 69.782 72.2558 68.978C72.2558 68.174 72.0578 67.562 71.6618 67.142C71.2658 66.71 70.7738 66.494 70.1858 66.494ZM80.7999 63.83C81.5679 63.83 82.2279 64.004 82.7799 64.352C83.3319 64.7 83.7399 65.174 84.0039 65.774V63.956H87.0639V73.946C87.0639 74.882 86.8839 75.722 86.5239 76.466C86.1639 77.222 85.6119 77.822 84.8679 78.266C84.1239 78.71 83.1999 78.932 82.0959 78.932C80.5839 78.932 79.3719 78.572 78.4599 77.852C77.5599 77.144 77.0199 76.178 76.8399 74.954H79.8819C79.9779 75.362 80.1939 75.68 80.5299 75.908C80.8779 76.136 81.3279 76.25 81.8799 76.25C82.5159 76.25 83.0259 76.064 83.4099 75.692C83.8059 75.332 84.0039 74.75 84.0039 73.946V72.182C83.7399 72.782 83.3319 73.256 82.7799 73.604C82.2279 73.952 81.5679 74.126 80.7999 74.126C79.9719 74.126 79.2279 73.922 78.5679 73.514C77.9199 73.094 77.4039 72.494 77.0199 71.714C76.6479 70.934 76.4619 70.022 76.4619 68.978C76.4619 67.922 76.6479 67.01 77.0199 66.242C77.4039 65.462 77.9199 64.868 78.5679 64.46C79.2279 64.04 79.9719 63.83 80.7999 63.83ZM81.7899 66.53C81.1299 66.53 80.5959 66.746 80.1879 67.178C79.7919 67.61 79.5939 68.21 79.5939 68.978C79.5939 69.746 79.7919 70.346 80.1879 70.778C80.5959 71.21 81.1299 71.426 81.7899 71.426C82.4379 71.426 82.9659 71.204 83.3739 70.76C83.7939 70.316 84.0039 69.722 84.0039 68.978C84.0039 68.222 83.7939 67.628 83.3739 67.196C82.9659 66.752 82.4379 66.53 81.7899 66.53ZM93.8811 63.83C94.8771 63.83 95.7651 64.04 96.5451 64.46C97.3371 64.868 97.9551 65.462 98.3991 66.242C98.8551 67.022 99.0831 67.934 99.0831 68.978C99.0831 70.022 98.8551 70.934 98.3991 71.714C97.9551 72.494 97.3371 73.094 96.5451 73.514C95.7651 73.922 94.8771 74.126 93.8811 74.126C92.8851 74.126 91.9911 73.922 91.1991 73.514C90.4071 73.094 89.7831 72.494 89.3271 71.714C88.8831 70.934 88.6611 70.022 88.6611 68.978C88.6611 67.934 88.8831 67.022 89.3271 66.242C89.7831 65.462 90.4071 64.868 91.1991 64.46C91.9911 64.04 92.8851 63.83 93.8811 63.83ZM93.8811 66.494C93.2931 66.494 92.7951 66.71 92.3871 67.142C91.9911 67.562 91.7931 68.174 91.7931 68.978C91.7931 69.782 91.9911 70.394 92.3871 70.814C92.7951 71.234 93.2931 71.444 93.8811 71.444C94.4691 71.444 94.9611 71.234 95.3571 70.814C95.7531 70.394 95.9511 69.782 95.9511 68.978C95.9511 68.174 95.7531 67.562 95.3571 67.142C94.9611 66.71 94.4691 66.494 93.8811 66.494Z" fill="#6070FF"/>
<path fill-rule="evenodd" clip-rule="evenodd" d="M322 63C322 62.4477 322.448 62 323 62H339C339.552 62 340 62.4477 340 63C340 63.5523 339.552 64 339 64H323C322.448 64 322 63.5523 322 63ZM322 68C322 67.4477 322.448 67 323 67L339 67C339.552 67 340 67.4477 340 68C340 68.5523 339.552 69 339 69L323 69C322.448 69 322 68.5523 322 68ZM323 72C322.448 72 322 72.4477 322 73C322 73.5523 322.448 74 323 74H339C339.552 74 340 73.5523 340 73C340 72.4477 339.552 72 339 72H323Z" fill="#6070FF"/>
</svg>
