<svg width="375" height="44" viewBox="0 0 375 44" fill="none" xmlns="http://www.w3.org/2000/svg">
<rect opacity="0.35" x="336.5" y="17.8333" width="21" height="10.3333" rx="2.16667" stroke="black"/>
<path opacity="0.4" d="M359 20.9999V24.9999C359.805 24.6611 360.328 23.873 360.328 22.9999C360.328 22.1267 359.805 21.3387 359 20.9999Z" fill="black"/>
<rect x="338" y="19.3333" width="18" height="7.33333" rx="1.33333" fill="black"/>
<path fill-rule="evenodd" clip-rule="evenodd" d="M323.33 19.608C325.546 19.6081 327.677 20.4596 329.283 21.9863C329.404 22.1042 329.597 22.1027 329.716 21.983L330.872 20.8163C330.933 20.7556 330.966 20.6734 330.966 20.5878C330.965 20.5022 330.931 20.4204 330.87 20.3603C326.655 16.3208 320.005 16.3208 315.79 20.3603C315.729 20.4203 315.694 20.5021 315.693 20.5877C315.693 20.6733 315.726 20.7556 315.787 20.8163L316.943 21.983C317.062 22.1029 317.255 22.1044 317.376 21.9863C318.982 20.4595 321.114 19.608 323.33 19.608ZM323.33 23.4037C324.547 23.4036 325.721 23.8561 326.624 24.6733C326.746 24.7893 326.938 24.7868 327.057 24.6677L328.212 23.501C328.273 23.4398 328.307 23.3568 328.306 23.2705C328.305 23.1843 328.269 23.102 328.207 23.042C325.459 20.4856 321.203 20.4856 318.455 23.042C318.393 23.102 318.357 23.1843 318.357 23.2706C318.356 23.3569 318.39 23.4399 318.451 23.501L319.605 24.6677C319.724 24.7868 319.916 24.7893 320.038 24.6733C320.94 23.8567 322.113 23.4042 323.33 23.4037ZM325.643 25.9575C325.645 26.044 325.611 26.1274 325.549 26.188L323.552 28.2037C323.493 28.2629 323.413 28.2963 323.33 28.2963C323.247 28.2963 323.167 28.2629 323.108 28.2037L321.111 26.188C321.049 26.1274 321.015 26.0439 321.017 25.9574C321.019 25.8709 321.056 25.789 321.12 25.731C322.396 24.6521 324.264 24.6521 325.54 25.731C325.604 25.7891 325.641 25.871 325.643 25.9575Z" fill="black"/>
<path fill-rule="evenodd" clip-rule="evenodd" d="M309.666 17.6667H308.666C308.114 17.6667 307.666 18.1145 307.666 18.6667V27.3334C307.666 27.8857 308.114 28.3334 308.666 28.3334H309.666C310.218 28.3334 310.666 27.8857 310.666 27.3334V18.6667C310.666 18.1145 310.218 17.6667 309.666 17.6667ZM303.999 20.0001H304.999C305.552 20.0001 305.999 20.4478 305.999 21.0001V27.3334C305.999 27.8857 305.552 28.3334 304.999 28.3334H303.999C303.447 28.3334 302.999 27.8857 302.999 27.3334V21.0001C302.999 20.4478 303.447 20.0001 303.999 20.0001ZM300.333 22.3334H299.333C298.78 22.3334 298.333 22.7811 298.333 23.3334V27.3334C298.333 27.8857 298.78 28.3334 299.333 28.3334H300.333C300.885 28.3334 301.333 27.8857 301.333 27.3334V23.3334C301.333 22.7811 300.885 22.3334 300.333 22.3334ZM295.666 24.3334H294.666C294.114 24.3334 293.666 24.7811 293.666 25.3334V27.3334C293.666 27.8857 294.114 28.3334 294.666 28.3334H295.666C296.218 28.3334 296.666 27.8857 296.666 27.3334V25.3334C296.666 24.7811 296.218 24.3334 295.666 24.3334Z" fill="black"/>
<path d="M40.0802 24.8369C39.5242 25.4248 38.8748 25.7188 38.1319 25.7188C37.2569 25.7188 36.5596 25.4134 36.0401 24.8027C35.5206 24.1875 35.2608 23.3809 35.2608 22.3828C35.2608 21.7266 35.393 21.1318 35.6573 20.5986C35.9216 20.0654 36.2976 19.6507 36.7852 19.3545C37.2729 19.0583 37.838 18.9102 38.4805 18.9102C39.4832 18.9102 40.2784 19.2839 40.8663 20.0312C41.4542 20.7786 41.7481 21.779 41.7481 23.0322V23.4971C41.7481 25.2926 41.3425 26.6621 40.5313 27.6055C39.7201 28.5488 38.5102 29.0273 36.9014 29.041H36.7032V27.667H36.9425C37.9223 27.6533 38.6742 27.4186 39.1983 26.9629C39.7224 26.5026 40.0164 25.7939 40.0802 24.8369ZM38.4805 24.4199C38.8132 24.4199 39.1254 24.3242 39.4171 24.1328C39.7087 23.9414 39.9343 23.6771 40.0938 23.3398V22.6904C40.0938 21.9567 39.9434 21.3665 39.6427 20.9199C39.3419 20.4733 38.9522 20.25 38.4737 20.25C37.9952 20.25 37.6124 20.4482 37.3253 20.8447C37.0427 21.2367 36.9014 21.7334 36.9014 22.335C36.9014 22.9593 37.045 23.4629 37.3321 23.8457C37.6192 24.2285 38.002 24.4199 38.4805 24.4199ZM44.1546 27.25C44.4645 27.25 44.7038 27.3389 44.8724 27.5166C45.041 27.6898 45.1254 27.9085 45.1254 28.1729C45.1254 28.4326 45.041 28.6491 44.8724 28.8223C44.7038 28.9909 44.4645 29.0752 44.1546 29.0752C43.8584 29.0752 43.6237 28.9909 43.4505 28.8223C43.2774 28.6536 43.1908 28.4372 43.1908 28.1729C43.1908 27.9085 43.2751 27.6898 43.4437 27.5166C43.6123 27.3389 43.8493 27.25 44.1546 27.25ZM44.1546 21.4463C44.4645 21.4463 44.7038 21.5352 44.8724 21.7129C45.041 21.8861 45.1254 22.1048 45.1254 22.3691C45.1254 22.6289 45.041 22.8454 44.8724 23.0186C44.7038 23.1872 44.4645 23.2715 44.1546 23.2715C43.8584 23.2715 43.6237 23.1872 43.4505 23.0186C43.2774 22.8499 43.1908 22.6335 43.1908 22.3691C43.1908 22.1048 43.2751 21.8861 43.4437 21.7129C43.6123 21.5352 43.8493 21.4463 44.1546 21.4463ZM52.1051 25.4521H53.3424V26.7852H52.1051V29H50.444V26.7852H46.1442L46.0963 25.7734L50.3893 19.0469H52.1051V25.4521ZM47.8395 25.4521H50.444V21.2959L50.3209 21.5146L47.8395 25.4521ZM58.6611 29H57.0068V21.0088L54.5663 21.8428V20.4414L58.4491 19.0127H58.6611V29Z" fill="black"/>
</svg>
